# Blender 3.6.5
# www.blender.org
o Цилиндр
v 0.000000 -0.064716 -1.000000
v -0.000000 2.913001 -1.130747
v 0.195090 -0.064716 -0.980785
v 0.220598 2.913001 -1.109020
v 0.382683 -0.064716 -0.923880
v 0.432718 2.913001 -1.044674
v 0.555570 -0.064716 -0.831470
v 0.628210 2.913001 -0.940182
v 0.707107 -0.064716 -0.707107
v 0.799559 2.913001 -0.799559
v 0.831470 -0.064716 -0.555570
v 0.940182 2.913001 -0.628210
v 0.923880 -0.064716 -0.382683
v 1.044674 2.913001 -0.432718
v 0.980785 -0.064716 -0.195090
v 1.109020 2.913001 -0.220598
v 1.000000 -0.064716 0.000000
v 1.130747 2.913001 0.000000
v 0.980785 -0.064716 0.195090
v 1.109020 2.913001 0.220598
v 0.923880 -0.064716 0.382683
v 1.044674 2.913001 0.432718
v 0.831470 -0.064716 0.555570
v 0.940182 2.913001 0.628210
v 0.707107 -0.064716 0.707107
v 0.799559 2.913001 0.799559
v 0.555570 -0.064716 0.831470
v 0.628210 2.913001 0.940182
v 0.382683 -0.064716 0.923880
v 0.432718 2.913001 1.044674
v 0.195090 -0.064716 0.980785
v 0.220598 2.913001 1.109020
v 0.000000 -0.064716 1.000000
v -0.000000 2.913001 1.130747
v -0.195090 -0.064716 0.980785
v -0.220598 2.913001 1.109020
v -0.382683 -0.064716 0.923880
v -0.432718 2.913001 1.044674
v -0.555570 -0.064716 0.831470
v -0.628210 2.913001 0.940182
v -0.707107 -0.064716 0.707107
v -0.799559 2.913001 0.799559
v -0.831470 -0.064716 0.555570
v -0.940182 2.913001 0.628210
v -0.923880 -0.064716 0.382683
v -1.044674 2.913001 0.432718
v -0.980785 -0.064716 0.195090
v -1.109020 2.913001 0.220598
v -1.000000 -0.064716 0.000000
v -1.130747 2.913001 0.000000
v -0.980785 -0.064716 -0.195090
v -1.109020 2.913001 -0.220598
v -0.923880 -0.064716 -0.382683
v -1.044674 2.913001 -0.432718
v -0.831470 -0.064716 -0.555570
v -0.940182 2.913001 -0.628210
v -0.707107 -0.064716 -0.707107
v -0.799559 2.913001 -0.799559
v -0.555570 -0.064716 -0.831470
v -0.628210 2.913001 -0.940182
v -0.382683 -0.064716 -0.923880
v -0.432718 2.913001 -1.044674
v -0.195090 -0.064716 -0.980785
v -0.220598 2.913001 -1.109020
v -0.000000 2.913001 -1.130747
v 0.220598 2.913001 -1.109020
v 0.432718 2.913001 -1.044674
v 0.628210 2.913001 -0.940182
v 0.799559 2.913001 -0.799559
v 0.940182 2.913001 -0.628210
v 1.044674 2.913001 -0.432718
v 1.109020 2.913001 -0.220598
v 1.130747 2.913001 0.000000
v 1.109020 2.913001 0.220598
v 1.044674 2.913001 0.432718
v 0.940182 2.913001 0.628210
v 0.799559 2.913001 0.799559
v 0.628210 2.913001 0.940182
v 0.432718 2.913001 1.044674
v 0.220598 2.913001 1.109020
v -0.000000 2.913001 1.130747
v -0.220598 2.913001 1.109020
v -0.432718 2.913001 1.044674
v -0.628210 2.913001 0.940182
v -0.799559 2.913001 0.799559
v -0.940182 2.913001 0.628210
v -1.044674 2.913001 0.432718
v -1.109020 2.913001 0.220598
v -1.130747 2.913001 0.000000
v -1.109020 2.913001 -0.220598
v -1.044674 2.913001 -0.432718
v -0.940182 2.913001 -0.628210
v -0.799559 2.913001 -0.799559
v -0.628210 2.913001 -0.940182
v -0.432718 2.913001 -1.044674
v -0.220598 2.913001 -1.109020
v 0.212627 2.913001 -1.068947
v -0.000000 2.913001 -1.089889
v 0.417082 2.913001 -1.006926
v 0.605510 2.913001 -0.906209
v 0.770668 2.913001 -0.770668
v 0.906209 2.913001 -0.605510
v 1.006926 2.913001 -0.417082
v 1.068947 2.913001 -0.212627
v 1.089889 2.913001 0.000000
v 1.068947 2.913001 0.212627
v 1.006926 2.913001 0.417082
v 0.906209 2.913001 0.605510
v 0.770668 2.913001 0.770668
v 0.605510 2.913001 0.906209
v 0.417082 2.913001 1.006926
v 0.212627 2.913001 1.068947
v -0.000000 2.913001 1.089889
v -0.212627 2.913001 1.068947
v -0.417082 2.913001 1.006926
v -0.605510 2.913001 0.906209
v -0.770668 2.913001 0.770668
v -0.906209 2.913001 0.605510
v -1.006926 2.913001 0.417082
v -1.068947 2.913001 0.212627
v -1.089889 2.913001 0.000000
v -1.068947 2.913001 -0.212627
v -1.006926 2.913001 -0.417082
v -0.906209 2.913001 -0.605510
v -0.770668 2.913001 -0.770668
v -0.605510 2.913001 -0.906209
v -0.417082 2.913001 -1.006926
v -0.212627 2.913001 -1.068947
v 0.184407 0.245300 -0.927077
v -0.000000 0.245300 -0.945240
v 0.361727 0.245300 -0.873287
v 0.525147 0.245300 -0.785938
v 0.668385 0.245300 -0.668385
v 0.785938 0.245300 -0.525147
v 0.873287 0.245300 -0.361728
v 0.927077 0.245300 -0.184407
v 0.945239 0.245300 0.000000
v 0.927077 0.245300 0.184407
v 0.873287 0.245300 0.361728
v 0.785938 0.245300 0.525147
v 0.668385 0.245300 0.668385
v 0.525147 0.245300 0.785938
v 0.361727 0.245300 0.873287
v 0.184407 0.245300 0.927077
v -0.000000 0.245300 0.945240
v -0.184407 0.245300 0.927077
v -0.361728 0.245300 0.873287
v -0.525147 0.245300 0.785938
v -0.668385 0.245300 0.668385
v -0.785938 0.245300 0.525147
v -0.873288 0.245300 0.361728
v -0.927077 0.245300 0.184407
v -0.945240 0.245300 0.000000
v -0.927077 0.245300 -0.184407
v -0.873288 0.245300 -0.361728
v -0.785938 0.245300 -0.525147
v -0.668385 0.245300 -0.668385
v -0.525147 0.245300 -0.785938
v -0.361728 0.245300 -0.873287
v -0.184407 0.245300 -0.927077
vn 0.0979 -0.0437 -0.9942
vn 0.2900 -0.0437 -0.9560
vn 0.4709 -0.0437 -0.8811
vn 0.6338 -0.0437 -0.7723
vn 0.7723 -0.0437 -0.6338
vn 0.8811 -0.0437 -0.4709
vn 0.9560 -0.0437 -0.2900
vn 0.9942 -0.0437 -0.0979
vn 0.9942 -0.0437 0.0979
vn 0.9560 -0.0437 0.2900
vn 0.8811 -0.0437 0.4709
vn 0.7723 -0.0437 0.6338
vn 0.6338 -0.0437 0.7723
vn 0.4709 -0.0437 0.8811
vn 0.2900 -0.0437 0.9560
vn 0.0979 -0.0437 0.9942
vn -0.0979 -0.0437 0.9942
vn -0.2900 -0.0437 0.9560
vn -0.4709 -0.0437 0.8811
vn -0.6338 -0.0437 0.7723
vn -0.7723 -0.0437 0.6338
vn -0.8811 -0.0437 0.4709
vn -0.9560 -0.0437 0.2900
vn -0.9942 -0.0437 0.0979
vn -0.9942 -0.0437 -0.0979
vn -0.9560 -0.0437 -0.2900
vn -0.8811 -0.0437 -0.4709
vn -0.7723 -0.0437 -0.6338
vn -0.6338 -0.0437 -0.7723
vn -0.4709 -0.0437 -0.8811
vn -0.2900 -0.0437 -0.9560
vn -0.0979 -0.0437 -0.9942
vn -0.6335 0.0539 0.7719
vn -0.0000 1.0000 -0.0000
vn 0.2899 0.0539 0.9556
vn 0.2899 0.0539 -0.9556
vn -0.7719 0.0539 0.6335
vn 0.0979 0.0539 0.9937
vn 0.4707 0.0539 -0.8806
vn -0.8806 0.0539 0.4707
vn 0.6335 0.0539 -0.7719
vn -0.9556 0.0539 0.2899
vn 0.7719 0.0539 -0.6335
vn -0.9937 0.0539 0.0979
vn 0.8806 0.0539 -0.4707
vn -0.9937 0.0539 -0.0979
vn 0.9556 0.0539 -0.2899
vn -0.9556 0.0539 -0.2899
vn 0.9937 0.0539 -0.0979
vn -0.8806 0.0539 -0.4707
vn 0.9937 0.0539 0.0979
vn -0.7719 0.0539 -0.6335
vn 0.9556 0.0539 0.2899
vn -0.6335 0.0539 -0.7719
vn 0.8806 0.0539 0.4707
vn -0.4707 0.0539 -0.8806
vn -0.0979 0.0539 0.9937
vn 0.7719 0.0539 0.6335
vn -0.2899 0.0539 -0.9556
vn -0.2899 0.0539 0.9556
vn 0.6335 0.0539 0.7719
vn -0.0979 0.0539 -0.9937
vn -0.4707 0.0539 0.8806
vn 0.4707 0.0539 0.8806
vn 0.0979 0.0539 -0.9937
vt 1.000000 1.000000
vt 0.968750 0.500000
vt 1.000000 0.500000
vt 0.968750 1.000000
vt 0.937500 0.500000
vt 0.937500 1.000000
vt 0.906250 0.500000
vt 0.906250 1.000000
vt 0.875000 0.500000
vt 0.875000 1.000000
vt 0.843750 0.500000
vt 0.843750 1.000000
vt 0.812500 0.500000
vt 0.812500 1.000000
vt 0.781250 0.500000
vt 0.781250 1.000000
vt 0.750000 0.500000
vt 0.750000 1.000000
vt 0.718750 0.500000
vt 0.718750 1.000000
vt 0.687500 0.500000
vt 0.687500 1.000000
vt 0.656250 0.500000
vt 0.656250 1.000000
vt 0.625000 0.500000
vt 0.625000 1.000000
vt 0.593750 0.500000
vt 0.593750 1.000000
vt 0.562500 0.500000
vt 0.562500 1.000000
vt 0.531250 0.500000
vt 0.531250 1.000000
vt 0.500000 0.500000
vt 0.500000 1.000000
vt 0.468750 0.500000
vt 0.468750 1.000000
vt 0.437500 0.500000
vt 0.437500 1.000000
vt 0.406250 0.500000
vt 0.406250 1.000000
vt 0.375000 0.500000
vt 0.375000 1.000000
vt 0.343750 0.500000
vt 0.343750 1.000000
vt 0.312500 0.500000
vt 0.312500 1.000000
vt 0.281250 0.500000
vt 0.281250 1.000000
vt 0.250000 0.500000
vt 0.250000 1.000000
vt 0.218750 0.500000
vt 0.218750 1.000000
vt 0.187500 0.500000
vt 0.187500 1.000000
vt 0.156250 0.500000
vt 0.156250 1.000000
vt 0.125000 0.500000
vt 0.125000 1.000000
vt 0.093750 0.500000
vt 0.093750 1.000000
vt 0.062500 0.500000
vt 0.062500 1.000000
vt 0.031250 0.500000
vt 0.031250 1.000000
vt 0.000000 0.500000
vt 0.378519 0.442342
vt 0.413573 0.413574
vt 0.250000 0.481328
vt 0.296822 0.485388
vt 0.250000 0.490000
vt 0.338525 0.463719
vt 0.295130 0.476883
vt 0.341844 0.471731
vt 0.419706 0.419706
vt 0.383337 0.449553
vt 0.442342 0.378519
vt 0.463719 0.338525
vt 0.449553 0.383337
vt 0.485388 0.296822
vt 0.471731 0.341844
vt 0.481328 0.250000
vt 0.476883 0.295130
vt 0.485388 0.203178
vt 0.490000 0.250000
vt 0.463719 0.161475
vt 0.476883 0.204870
vt 0.442342 0.121481
vt 0.471731 0.158156
vt 0.419706 0.080294
vt 0.449553 0.116663
vt 0.378519 0.057658
vt 0.413573 0.086427
vt 0.338525 0.036281
vt 0.383337 0.050447
vt 0.296822 0.014612
vt 0.341844 0.028269
vt 0.250000 0.018672
vt 0.295130 0.023117
vt 0.203178 0.014612
vt 0.250000 0.010000
vt 0.161475 0.036281
vt 0.204870 0.023117
vt 0.121481 0.057658
vt 0.158156 0.028269
vt 0.080294 0.080294
vt 0.116663 0.050447
vt 0.057658 0.121481
vt 0.086427 0.086427
vt 0.036281 0.161475
vt 0.050447 0.116663
vt 0.014612 0.203178
vt 0.028269 0.158156
vt 0.018672 0.250000
vt 0.023117 0.204870
vt 0.014612 0.296822
vt 0.010000 0.250000
vt 0.036281 0.338525
vt 0.023117 0.295130
vt 0.057658 0.378519
vt 0.028269 0.341844
vt 0.080294 0.419706
vt 0.050447 0.383337
vt 0.121481 0.442342
vt 0.086427 0.413574
vt 0.161475 0.463719
vt 0.116663 0.449553
vt 0.203178 0.485388
vt 0.158156 0.471731
vt 0.204870 0.476883
vt 0.000000 1.000000
s 0
f 2/1/1 3/2/1 1/3/1
f 4/4/2 5/5/2 3/2/2
f 6/6/3 7/7/3 5/5/3
f 8/8/4 9/9/4 7/7/4
f 10/10/5 11/11/5 9/9/5
f 12/12/6 13/13/6 11/11/6
f 14/14/7 15/15/7 13/13/7
f 16/16/8 17/17/8 15/15/8
f 18/18/9 19/19/9 17/17/9
f 20/20/10 21/21/10 19/19/10
f 22/22/11 23/23/11 21/21/11
f 24/24/12 25/25/12 23/23/12
f 26/26/13 27/27/13 25/25/13
f 28/28/14 29/29/14 27/27/14
f 30/30/15 31/31/15 29/29/15
f 32/32/16 33/33/16 31/31/16
f 34/34/17 35/35/17 33/33/17
f 36/36/18 37/37/18 35/35/18
f 38/38/19 39/39/19 37/37/19
f 40/40/20 41/41/20 39/39/20
f 42/42/21 43/43/21 41/41/21
f 44/44/22 45/45/22 43/43/22
f 46/46/23 47/47/23 45/45/23
f 48/48/24 49/49/24 47/47/24
f 50/50/25 51/51/25 49/49/25
f 52/52/26 53/53/26 51/51/26
f 54/54/27 55/55/27 53/53/27
f 56/56/28 57/57/28 55/55/28
f 58/58/29 59/59/29 57/57/29
f 60/60/30 61/61/30 59/59/30
f 62/62/31 63/63/31 61/61/31
f 64/64/32 1/65/32 63/63/32
f 100/66/33 133/67/33 101/67/33
f 98/68/34 66/69/34 65/70/34
f 99/71/34 66/69/34 97/72/34
f 100/66/34 67/73/34 99/71/34
f 100/66/34 69/74/34 68/75/34
f 102/76/34 69/74/34 101/67/34
f 103/77/34 70/78/34 102/76/34
f 103/77/34 72/79/34 71/80/34
f 105/81/34 72/79/34 104/82/34
f 105/81/34 74/83/34 73/84/34
f 107/85/34 74/83/34 106/86/34
f 108/87/34 75/88/34 107/85/34
f 108/87/34 77/89/34 76/90/34
f 110/91/34 77/89/34 109/92/34
f 111/93/34 78/94/34 110/91/34
f 111/93/34 80/95/34 79/96/34
f 113/97/34 80/95/34 112/98/34
f 113/97/34 82/99/34 81/100/34
f 115/101/34 82/99/34 114/102/34
f 116/103/34 83/104/34 115/101/34
f 116/103/34 85/105/34 84/106/34
f 118/107/34 85/105/34 117/108/34
f 119/109/34 86/110/34 118/107/34
f 119/109/34 88/111/34 87/112/34
f 121/113/34 88/111/34 120/114/34
f 121/113/34 90/115/34 89/116/34
f 123/117/34 90/115/34 122/118/34
f 124/119/34 91/120/34 123/117/34
f 124/119/34 93/121/34 92/122/34
f 126/123/34 93/121/34 125/124/34
f 127/125/34 94/126/34 126/123/34
f 127/125/34 96/127/34 95/128/34
f 98/68/34 96/127/34 128/129/34
f 127/125/35 160/129/35 128/129/35
f 114/102/36 147/101/36 115/101/36
f 101/67/37 134/76/37 102/76/37
f 128/129/38 130/68/38 98/68/38
f 115/101/39 148/103/39 116/103/39
f 102/76/40 135/77/40 103/77/40
f 116/103/41 149/108/41 117/108/41
f 103/77/42 136/82/42 104/82/42
f 117/108/43 150/107/43 118/107/43
f 104/82/44 137/81/44 105/81/44
f 119/109/45 150/107/45 151/109/45
f 105/81/46 138/86/46 106/86/46
f 119/109/47 152/114/47 120/114/47
f 106/86/48 139/85/48 107/85/48
f 120/114/49 153/113/49 121/113/49
f 107/85/50 140/87/50 108/87/50
f 121/113/51 154/118/51 122/118/51
f 108/87/52 141/92/52 109/92/52
f 122/118/53 155/117/53 123/117/53
f 109/92/54 142/91/54 110/91/54
f 123/117/55 156/119/55 124/119/55
f 110/91/56 143/93/56 111/93/56
f 98/68/57 129/72/57 97/72/57
f 124/119/58 157/124/58 125/124/58
f 111/93/59 144/98/59 112/98/59
f 97/72/60 131/71/60 99/71/60
f 125/124/61 158/123/61 126/123/61
f 112/98/62 145/97/62 113/97/62
f 99/71/63 132/66/63 100/66/63
f 126/123/64 159/125/64 127/125/64
f 113/97/65 146/102/65 114/102/65
f 2/1/1 4/4/1 3/2/1
f 4/4/2 6/6/2 5/5/2
f 6/6/3 8/8/3 7/7/3
f 8/8/4 10/10/4 9/9/4
f 10/10/5 12/12/5 11/11/5
f 12/12/6 14/14/6 13/13/6
f 14/14/7 16/16/7 15/15/7
f 16/16/8 18/18/8 17/17/8
f 18/18/9 20/20/9 19/19/9
f 20/20/10 22/22/10 21/21/10
f 22/22/11 24/24/11 23/23/11
f 24/24/12 26/26/12 25/25/12
f 26/26/13 28/28/13 27/27/13
f 28/28/14 30/30/14 29/29/14
f 30/30/15 32/32/15 31/31/15
f 32/32/16 34/34/16 33/33/16
f 34/34/17 36/36/17 35/35/17
f 36/36/18 38/38/18 37/37/18
f 38/38/19 40/40/19 39/39/19
f 40/40/20 42/42/20 41/41/20
f 42/42/21 44/44/21 43/43/21
f 44/44/22 46/46/22 45/45/22
f 46/46/23 48/48/23 47/47/23
f 48/48/24 50/50/24 49/49/24
f 50/50/25 52/52/25 51/51/25
f 52/52/26 54/54/26 53/53/26
f 54/54/27 56/56/27 55/55/27
f 56/56/28 58/58/28 57/57/28
f 58/58/29 60/60/29 59/59/29
f 60/60/30 62/62/30 61/61/30
f 62/62/31 64/64/31 63/63/31
f 64/64/32 2/130/32 1/65/32
f 100/66/33 132/66/33 133/67/33
f 98/68/34 97/72/34 66/69/34
f 99/71/34 67/73/34 66/69/34
f 100/66/34 68/75/34 67/73/34
f 100/66/34 101/67/34 69/74/34
f 102/76/34 70/78/34 69/74/34
f 103/77/34 71/80/34 70/78/34
f 103/77/34 104/82/34 72/79/34
f 105/81/34 73/84/34 72/79/34
f 105/81/34 106/86/34 74/83/34
f 107/85/34 75/88/34 74/83/34
f 108/87/34 76/90/34 75/88/34
f 108/87/34 109/92/34 77/89/34
f 110/91/34 78/94/34 77/89/34
f 111/93/34 79/96/34 78/94/34
f 111/93/34 112/98/34 80/95/34
f 113/97/34 81/100/34 80/95/34
f 113/97/34 114/102/34 82/99/34
f 115/101/34 83/104/34 82/99/34
f 116/103/34 84/106/34 83/104/34
f 116/103/34 117/108/34 85/105/34
f 118/107/34 86/110/34 85/105/34
f 119/109/34 87/112/34 86/110/34
f 119/109/34 120/114/34 88/111/34
f 121/113/34 89/116/34 88/111/34
f 121/113/34 122/118/34 90/115/34
f 123/117/34 91/120/34 90/115/34
f 124/119/34 92/122/34 91/120/34
f 124/119/34 125/124/34 93/121/34
f 126/123/34 94/126/34 93/121/34
f 127/125/34 95/128/34 94/126/34
f 127/125/34 128/129/34 96/127/34
f 98/68/34 65/70/34 96/127/34
f 127/125/35 159/125/35 160/129/35
f 114/102/36 146/102/36 147/101/36
f 101/67/37 133/67/37 134/76/37
f 128/129/38 160/129/38 130/68/38
f 115/101/39 147/101/39 148/103/39
f 102/76/40 134/76/40 135/77/40
f 116/103/41 148/103/41 149/108/41
f 103/77/42 135/77/42 136/82/42
f 117/108/43 149/108/43 150/107/43
f 104/82/44 136/82/44 137/81/44
f 119/109/45 118/107/45 150/107/45
f 105/81/46 137/81/46 138/86/46
f 119/109/47 151/109/47 152/114/47
f 106/86/48 138/86/48 139/85/48
f 120/114/49 152/114/49 153/113/49
f 107/85/50 139/85/50 140/87/50
f 121/113/51 153/113/51 154/118/51
f 108/87/52 140/87/52 141/92/52
f 122/118/53 154/118/53 155/117/53
f 109/92/54 141/92/54 142/91/54
f 123/117/55 155/117/55 156/119/55
f 110/91/56 142/91/56 143/93/56
f 98/68/57 130/68/57 129/72/57
f 124/119/58 156/119/58 157/124/58
f 111/93/59 143/93/59 144/98/59
f 97/72/60 129/72/60 131/71/60
f 125/124/61 157/124/61 158/123/61
f 112/98/62 144/98/62 145/97/62
f 99/71/63 131/71/63 132/66/63
f 126/123/64 158/123/64 159/125/64
f 113/97/65 145/97/65 146/102/65
